<svg width="26" height="36" viewBox="0 0 26 36" fill="none" xmlns="http://www.w3.org/2000/svg">
<path d="M12.857 0.000318347C9.48424 -0.0234831 6.23908 1.28822 3.83016 3.64898C1.42125 6.00974 0.0442955 9.22776 0 12.6003C0 22.0503 12.857 36.0003 12.857 36.0003C12.857 36.0003 25.714 22.0503 25.714 12.6003C25.6697 9.22776 24.2928 6.00974 21.8838 3.64898C19.4749 1.28822 16.2298 -0.0234831 12.857 0.000318347ZM12.857 17.1003C11.9711 17.0822 11.1103 16.803 10.3825 16.2976C9.65468 15.7923 9.09224 15.0833 8.76571 14.2596C8.43918 13.4359 8.36309 12.5341 8.54697 11.6674C8.73086 10.8006 9.16653 10.0074 9.79938 9.38725C10.4322 8.76708 11.2341 8.34754 12.1044 8.18123C12.9747 8.01493 13.8747 8.10925 14.6917 8.45238C15.5086 8.79552 16.206 9.37218 16.6965 10.1101C17.1871 10.848 17.4488 11.7143 17.449 12.6003C17.4491 13.1991 17.3298 13.7919 17.0979 14.3439C16.866 14.896 16.5263 15.3962 16.0986 15.8153C15.671 16.2344 15.164 16.5639 14.6073 16.7845C14.0507 17.0052 13.4556 17.1126 12.857 17.1003Z" fill="#AFB6C6"/>
</svg>
